<svg width="20" height="20" viewBox="0 0 20 20" fill="none" xmlns="http://www.w3.org/2000/svg">
<path fill-rule="evenodd" clip-rule="evenodd" d="M15.9577 4.375H4.44725L3.46377 2.61217C3.35338 2.4143 3.14455 2.29167 2.91797 2.29167H1.66797C1.32279 2.29167 1.04297 2.57149 1.04297 2.91667C1.04297 3.26185 1.32279 3.54167 1.66797 3.54167H2.55097L3.52155 5.28138L5.75994 10.2341L5.76224 10.2391L5.95939 10.6753L3.71202 13.0725C3.55043 13.2449 3.49985 13.4937 3.58129 13.7154C3.66273 13.9372 3.86228 14.0941 4.09702 14.121L6.14546 14.3551C8.70769 14.6479 11.2949 14.6479 13.8572 14.3551L15.9056 14.121C16.2486 14.0818 16.4948 13.772 16.4556 13.429C16.4164 13.0861 16.1066 12.8399 15.7637 12.879L13.7152 13.1132C11.2473 13.3952 8.75531 13.3952 6.2874 13.1132L5.47446 13.0202L7.12394 11.2608C7.1399 11.2438 7.15472 11.2261 7.1684 11.2079L7.79575 11.2895C8.67485 11.4039 9.56348 11.4263 10.4472 11.3564C12.5085 11.1934 14.4188 10.2126 15.7525 8.63256L16.2343 8.06188C16.2504 8.04271 16.2654 8.02259 16.2792 8.00162L17.177 6.63341C17.8134 5.66361 17.1177 4.375 15.9577 4.375ZM7.21486 9.95338C7.07702 9.93544 6.95816 9.84788 6.90012 9.7217L6.89901 9.71926L5.04858 5.625H15.9577C16.1235 5.625 16.2228 5.80909 16.1319 5.94763L15.2548 7.28436L14.7973 7.82627C13.679 9.15116 12.0771 9.9736 10.3487 10.1103C9.55153 10.1733 8.74999 10.1531 7.95704 10.0499L7.21486 9.95338Z" fill="black"/>
<path d="M5.41797 15.4167C4.72761 15.4167 4.16797 15.9763 4.16797 16.6667C4.16797 17.357 4.72761 17.9167 5.41797 17.9167C6.10833 17.9167 6.66797 17.357 6.66797 16.6667C6.66797 15.9763 6.10833 15.4167 5.41797 15.4167Z" fill="black"/>
<path d="M13.3346 16.6667C13.3346 15.9763 13.8943 15.4167 14.5846 15.4167C15.275 15.4167 15.8346 15.9763 15.8346 16.6667C15.8346 17.357 15.275 17.9167 14.5846 17.9167C13.8943 17.9167 13.3346 17.357 13.3346 16.6667Z" fill="black"/>
</svg>
